<?xml version="1.0" standalone="no"?>
<!DOCTYPE svg PUBLIC "-//W3C//DTD SVG 20010904//EN"
 "http://www.w3.org/TR/2001/REC-SVG-20010904/DTD/svg10.dtd">
<svg version="1.0" xmlns="http://www.w3.org/2000/svg"
 width="908.000000pt" height="906.000000pt" viewBox="0 0 908.000000 906.000000"
 preserveAspectRatio="xMidYMid meet">

<g transform="translate(0.000000,906.000000) scale(0.100000,-0.100000)"
fill="#000000" stroke="none">
<path d="M0 4530 l0 -4530 4540 0 4540 0 0 4530 0 4530 -4540 0 -4540 0 0
-4530z m4678 1908 c20 -20 14 -80 -13 -123 -26 -43 -33 -116 -16 -171 5 -16
12 -42 16 -57 l6 -29 -33 24 c-18 13 -42 29 -53 36 -11 7 -33 21 -50 32 -46
31 -101 43 -137 31 -17 -6 -40 -11 -52 -11 -12 0 -33 -7 -48 -14 -27 -14 -28
-14 -28 13 0 15 9 36 19 45 11 10 25 31 32 47 7 19 29 39 58 55 25 13 62 38
82 54 41 35 141 79 180 80 14 0 30 -5 37 -12z m-450 -370 c2 -15 -7 -58 -19
-94 l-23 -67 24 -70 c29 -85 108 -225 157 -278 19 -21 51 -62 70 -91 19 -29
43 -62 53 -73 9 -11 30 -42 45 -70 15 -27 33 -57 41 -66 8 -8 25 -44 39 -78
14 -35 36 -79 49 -99 12 -21 30 -57 40 -82 10 -25 26 -58 36 -75 10 -16 23
-50 30 -75 6 -25 23 -61 36 -81 17 -25 30 -66 40 -130 9 -52 21 -98 26 -104 6
-7 27 9 59 45 36 40 55 73 70 120 31 99 72 156 203 279 33 31 69 66 80 79 74
83 210 211 247 233 66 39 86 42 309 44 l205 2 60 31 c62 33 89 39 100 23 7
-13 -137 -179 -183 -211 -29 -21 -41 -39 -59 -95 -23 -67 -23 -79 -17 -293 3
-148 10 -239 20 -270 17 -56 18 -130 3 -169 -14 -36 -13 -663 1 -788 48 -405
87 -593 174 -820 30 -79 25 -91 -84 -195 -55 -52 -160 -154 -234 -226 -184
-181 -181 -181 -326 -30 -65 67 -90 86 -126 96 -25 7 -63 28 -85 46 -21 18
-60 40 -86 50 -27 9 -68 26 -93 36 -60 25 -115 32 -193 24 -61 -7 -66 -10 -76
-37 -10 -29 -52 -87 -104 -142 -15 -16 -37 -47 -48 -68 -10 -22 -24 -40 -29
-40 -36 -5 -45 -2 -48 14 -7 33 8 67 46 110 21 23 44 55 52 71 8 16 23 31 32
34 9 2 25 25 36 50 11 26 32 58 46 71 14 14 26 28 26 33 0 5 36 44 80 87 44
44 80 84 80 89 0 10 57 49 93 64 11 5 42 0 77 -12 33 -11 82 -20 109 -20 38 0
56 -6 79 -25 16 -13 54 -33 84 -45 31 -11 76 -35 100 -53 56 -42 141 -93 168
-102 12 -4 33 -4 47 0 20 5 24 11 20 28 -23 93 -46 227 -52 307 -3 52 -13 124
-20 160 -7 36 -17 101 -21 145 -6 71 -10 83 -36 107 -47 44 -72 37 -108 -25
-34 -61 -192 -237 -226 -252 -12 -6 -32 -19 -43 -29 -27 -25 -35 -16 -50 59
-7 33 -23 78 -36 100 -12 22 -30 67 -40 100 -9 33 -30 85 -46 115 -16 30 -29
66 -29 79 0 14 -25 75 -55 137 -30 62 -55 118 -55 123 0 17 -17 13 -25 -6 -3
-10 -13 -59 -20 -110 -11 -72 -24 -112 -60 -183 -25 -49 -49 -90 -55 -90 -5 0
-19 -27 -31 -61 -23 -63 -21 -61 -234 -249 -105 -94 -130 -98 -205 -35 -23 19
-47 35 -53 35 -21 0 -176 144 -205 191 -31 48 -70 79 -100 79 -11 0 -36 -7
-57 -16 -51 -21 -61 -9 -57 73 3 68 -10 124 -32 142 -15 13 -110 -72 -135
-122 -11 -22 -24 -33 -44 -35 -29 -4 -51 -37 -76 -114 -8 -25 -49 -74 -124
-151 -106 -108 -141 -137 -166 -137 -6 0 -28 16 -50 35 -21 19 -41 35 -44 35
-3 0 -27 13 -54 30 -26 16 -84 38 -128 49 -137 32 -320 89 -371 115 -27 13
-74 31 -104 40 -65 19 -363 167 -465 231 -83 52 -196 155 -312 285 -96 107
-132 159 -191 280 -54 108 -66 176 -58 315 8 153 21 222 50 264 13 20 29 54
36 76 7 22 36 77 64 123 28 46 60 98 71 116 11 18 50 66 86 107 37 41 75 88
85 105 20 32 128 134 143 134 5 0 28 15 50 34 23 19 51 38 64 41 12 4 31 18
43 31 12 15 41 30 70 38 47 11 51 15 84 79 35 67 94 137 115 137 7 0 20 -9 30
-20 23 -25 30 -25 55 2 24 26 76 56 238 138 161 81 166 80 278 -38 45 -48 107
-107 139 -132 31 -25 87 -69 124 -99 157 -127 240 -166 287 -136 12 8 24 26
27 42 18 83 57 57 57 -39 0 -54 -2 -58 -30 -73 -16 -9 -30 -20 -30 -26 0 -6
-15 -27 -34 -47 -19 -20 -54 -59 -78 -86 -23 -27 -59 -59 -78 -72 -19 -13 -53
-38 -74 -54 -25 -19 -51 -30 -72 -30 -30 0 -35 5 -57 54 -15 32 -40 65 -62 82
-21 16 -74 61 -119 99 -95 83 -145 104 -173 73 -16 -18 -18 -42 -18 -227 0
-238 5 -258 70 -279 31 -10 49 -11 78 -2 32 9 48 8 100 -9 68 -23 311 -46 437
-43 96 3 114 -2 128 -33 20 -42 14 -58 -38 -113 -62 -66 -76 -93 -95 -184 -21
-96 -35 -111 -63 -65 -11 19 -41 49 -66 66 -49 34 -75 39 -324 61 -77 7 -119
7 -132 0 -31 -16 -40 -75 -39 -242 l2 -156 -32 -55 c-31 -54 -43 -65 -196
-176 -56 -40 -104 -63 -121 -57 -11 4 -14 61 -13 325 0 382 -3 398 -74 387
-23 -4 -65 -18 -94 -32 -61 -30 -127 -42 -138 -24 -4 7 6 31 26 59 18 25 49
71 70 101 39 59 65 87 147 162 l51 46 0 346 c0 408 4 392 -95 356 -11 -5 -27
-22 -34 -40 -14 -33 -59 -59 -135 -79 -34 -9 -56 -29 -145 -133 -58 -67 -111
-133 -119 -147 -8 -14 -26 -40 -40 -58 -61 -76 -74 -97 -96 -156 -13 -34 -33
-87 -45 -117 -19 -45 -23 -81 -28 -201 -5 -156 1 -193 44 -259 12 -19 28 -55
34 -79 25 -95 350 -416 448 -443 20 -5 46 -18 57 -28 39 -34 64 -42 97 -31 36
13 48 7 48 -23 0 -13 10 -38 23 -56 18 -28 33 -37 87 -50 36 -9 112 -36 170
-59 125 -50 256 -95 337 -115 90 -23 214 -61 257 -79 21 -10 62 -17 91 -17 47
0 56 4 78 29 13 16 28 47 32 67 3 21 18 59 31 86 25 48 32 102 14 113 -5 3
-17 34 -27 68 -11 41 -27 71 -46 89 -19 17 -28 32 -24 42 10 26 37 18 48 -14
7 -19 18 -30 30 -30 11 0 29 -16 43 -39 14 -22 35 -42 46 -46 11 -4 32 -30 46
-58 24 -47 27 -49 40 -33 29 41 37 130 35 426 -2 361 -16 704 -32 787 -17 92
2 137 88 206 132 105 164 139 173 186 7 41 6 46 -30 85 -21 23 -59 84 -85 136
-43 85 -48 104 -53 177 -5 93 8 162 41 207 12 17 34 53 48 81 18 35 41 61 77
85 28 19 59 45 68 58 22 32 58 26 62 -10z m2118 -484 c7 -60 3 -70 -64 -141
-45 -48 -82 -57 -82 -20 2 57 19 108 53 149 20 24 41 57 47 73 11 28 12 29 25
11 8 -10 17 -42 21 -72z m439 -253 c61 -10 131 -28 157 -39 67 -29 146 -42
264 -42 122 0 132 -6 113 -72 -7 -24 -21 -56 -32 -71 -15 -22 -21 -56 -27
-140 -13 -170 -14 -260 -6 -285 10 -31 82 -61 160 -68 68 -6 146 -30 146 -45
0 -17 -61 -36 -135 -43 -99 -10 -143 -23 -157 -49 -8 -16 -11 -127 -11 -407 0
-423 3 -454 65 -610 33 -84 41 -95 81 -104 29 -7 44 4 103 77 24 29 57 27 77
-4 8 -13 15 -15 24 -7 25 20 13 -45 -20 -112 -21 -43 -41 -69 -60 -78 -15 -7
-33 -26 -41 -41 -8 -15 -44 -52 -80 -82 -36 -30 -70 -63 -76 -75 -7 -11 -35
-33 -64 -49 l-52 -28 -41 27 c-33 22 -48 44 -81 115 -48 105 -78 133 -136 129
-36 -3 -43 -7 -58 -39 -22 -46 -192 -218 -246 -247 l-42 -23 -82 78 c-46 43
-109 108 -142 146 -49 56 -66 68 -98 74 -22 3 -42 13 -45 21 -4 8 2 47 12 86
16 58 19 109 19 281 0 116 -5 257 -12 315 -7 58 -16 165 -21 238 -12 167 -27
203 -106 250 -35 21 -55 40 -55 52 0 22 94 77 184 109 100 35 130 68 91 101
-55 46 30 36 200 -22 153 -53 292 -70 343 -44 50 26 65 60 67 156 1 48 8 104
15 124 16 51 1 66 -76 72 -33 3 -88 18 -124 34 -36 16 -105 36 -154 45 -49 9
-102 23 -117 31 -36 18 -109 18 -151 0 -18 -8 -48 -20 -66 -27 -36 -13 -82
-71 -82 -104 0 -34 -17 -52 -37 -39 -28 17 -26 30 9 66 19 18 40 49 48 68 7
19 27 51 44 71 17 20 45 56 61 79 44 61 150 148 188 154 70 12 83 13 117 15
19 0 85 -8 145 -18z m1007 -3 c34 -10 44 -21 80 -86 22 -41 54 -90 71 -109 27
-31 34 -34 76 -31 44 3 47 5 72 53 15 29 44 63 70 82 24 18 57 42 72 54 15 12
45 25 65 30 48 11 194 1 253 -17 25 -8 80 -18 122 -23 78 -9 137 -38 137 -67
0 -32 -35 -82 -100 -141 -46 -42 -72 -76 -84 -107 -19 -49 -42 -59 -67 -30
-23 28 -112 67 -174 75 -104 14 -319 29 -338 23 -9 -3 -29 -29 -44 -57 -38
-74 -45 -224 -14 -312 26 -74 26 -80 0 -168 -20 -65 -21 -84 -15 -236 3 -91
12 -192 18 -223 9 -45 9 -74 -1 -133 -7 -41 -9 -80 -6 -85 4 -6 6 -54 6 -106
0 -128 28 -214 93 -281 55 -58 76 -53 90 23 15 83 26 124 36 124 15 0 19 -32
22 -182 l3 -147 -81 -83 c-45 -46 -100 -102 -122 -125 -34 -37 -45 -43 -81
-43 -37 0 -43 4 -73 46 -57 80 -120 144 -141 144 -11 0 -28 -7 -37 -15 -27
-25 -42 1 -28 50 18 70 21 126 8 186 -11 50 -10 64 4 99 19 47 21 118 5 192
-8 33 -12 185 -13 409 l-1 355 -27 33 c-37 43 -36 86 2 142 34 51 38 94 15
172 -21 69 -101 186 -149 217 -37 24 -38 26 -33 72 5 43 14 55 94 137 100 101
131 114 215 89z m-1493 -539 c20 -7 33 -20 37 -35 9 -36 -1 -39 -46 -19 -46
21 -65 39 -55 55 8 13 24 13 64 -1z"/>
<path d="M5493 5080 c-104 -9 -166 -52 -222 -154 -35 -65 -43 -89 -53 -178
-16 -128 -16 -224 0 -403 14 -160 28 -237 50 -280 8 -16 23 -68 33 -114 11
-46 36 -121 58 -166 21 -45 56 -133 77 -195 36 -108 40 -114 83 -141 25 -16
52 -29 61 -29 11 0 26 31 51 113 l36 112 -4 375 c-9 750 -7 829 14 853 70 81
103 178 68 204 -20 14 -121 16 -252 3z"/>
<path d="M4188 5047 c-16 -28 -20 -328 -6 -487 6 -63 12 -189 14 -280 4 -252
22 -499 39 -556 17 -57 49 -110 104 -168 124 -134 210 -206 246 -206 15 0 40
13 61 33 35 32 35 32 44 147 9 120 -9 405 -29 465 -6 17 -20 87 -31 158 -12
70 -30 153 -42 185 -11 31 -26 86 -33 122 -12 57 -94 246 -140 320 -8 14 -24
45 -35 70 -43 95 -98 172 -139 196 l-41 23 -12 -22z"/>
<path d="M6785 4489 c-22 -4 -69 -12 -105 -18 -54 -9 -70 -16 -94 -43 l-29
-32 7 -145 c4 -80 11 -268 15 -416 6 -251 8 -274 29 -313 59 -113 136 -206
189 -228 18 -8 50 -14 72 -14 44 0 60 15 80 80 16 53 28 511 22 800 -7 284
-12 308 -72 329 -36 12 -55 12 -114 0z"/>
</g>
</svg>
